<svg xmlns="http://www.w3.org/2000/svg" xmlns:xlink="http://www.w3.org/1999/xlink" viewBox="0 0 128 112">
<defs>
 <linearGradient id="agMetal" x1=".1" y1="0" x2=".9" y2="1" gradientUnits="objectBoundingBox"><stop stop-color="#f3ffff"/><stop offset=".12" stop-color="#648487"/><stop offset=".25" stop-color="#162b35"/><stop offset=".49" stop-color="#a5bec0"/><stop offset=".55" stop-color="#d3e3e3"/><stop offset=".68" stop-color="#405860"/><stop offset="1" stop-color="#06121c"/></linearGradient>
 <linearGradient id="agEdge" x2="0" y2="1"><stop stop-color="#315158"/><stop offset=".45" stop-color="#0b202c"/><stop offset=".8" stop-color="#020a12"/><stop offset="1" stop-color="#527178"/></linearGradient>
 <linearGradient id="agGlass" x1="0" y1="0" x2=".55" y2="1"><stop stop-color="#fff" stop-opacity=".43"/><stop offset=".42" stop-color="#fff" stop-opacity=".03"/><stop offset=".65" stop-color="#000" stop-opacity="0"/><stop offset="1" stop-color="#00141c" stop-opacity=".35"/></linearGradient>
 <linearGradient id="agShine" x1="0" y1="0" x2=".8" y2="1"><stop stop-color="#fff" stop-opacity=".55"/><stop offset="1" stop-color="#fff" stop-opacity="0"/></linearGradient>
 <radialGradient id="agShadow"><stop stop-color="#000b"/><stop offset="1" stop-color="#0000"/></radialGradient>
 <clipPath id="agFace"><rect x="16" y="15" width="96" height="72" rx="8"/></clipPath>
</defs>
<ellipse cx="64" cy="99" rx="62" ry="12" fill="url(#agShadow)"/>
<rect x="9" y="17" width="110" height="88" rx="14" fill="url(#agEdge)" stroke="#06121d" stroke-width="2"/>
<path d="M17 99H111" stroke="#89a4a9" stroke-opacity=".6"/>
<rect x="9" y="9" width="110" height="88" rx="14" fill="url(#agMetal)" stroke="#b7d2d0" stroke-width="1"/>
<rect x="13" y="12" width="102" height="79" rx="10" fill="#041923" stroke="#09141b" stroke-width="1.5"/>
<g clip-path="url(#agFace)"><svg x="16" y="15" width="96" height="72" xmlns="http://www.w3.org/2000/svg" id="flag-icons-ls" viewBox="0 0 640 480">
  <path fill="#fff" d="M0 0h640v480H0z"/>
  <path fill="#009543" d="M0 336h640v144H0z"/>
  <path fill="#00209f" d="M0 0h640v144H0z"/>
  <path stroke="#000" stroke-width="1.6" d="M319.6 153c-2.7 0-5.4 3-5.4 3l.3 32.4-10.3 10.7h8.3v18.5l-49 66-7.2-2.6-12.7 27s31.3 19.6 76.7 19c49.8-.5 76.9-19.9 76.9-19.9l-13-26.6-6.5 2.8-49.6-65.6v-19.1h8.2L325.1 188v-32.2s-2.7-3-5.5-2.9z"/>
  <path fill="none" stroke="#000" stroke-width="8" d="M336.7 230.4h-33.9s-12.2-25.9-10.3-44c2-18.4 12.6-27.1 26.6-27.3 16.6-.1 25.2 8.1 27.8 26.6 2.6 18.3-10.2 44.7-10.2 44.7z"/>
  <path fill="#fff" d="M260.5 292.1c-.6.7-4.7 8.9-4.7 8.9l7-1.5zm4 10.5-7.4 2.4 8.9 3.5zm3.3-10.3 3.7 10.9 9-2.6-2.3-5.2zm5.8 14.8 1.2 4.4 12 3-4.8-10.2zm13.2-9.3 4.3 10.2 9-3.5-3-4.5zm6 13.9 1.4 3.8 14 2-5.9-9.2-9.6 3.4zm13.4-11 5.2 9.1 13-4.8-1.4-3.5-16.8-.7zm7.6 12.4 2.7 4.8 16.2-.5-6-9-13 4.7zm17.1-12 4.4 7.6 10.4-5-2.8-4zm17 5.8-10.3 5.1 2.7 4.5 13.8-2.2zm3.3-8 5.3 6.7 8.7-6.9-3-3zm15.9 3.5-8.3 6.3 2.2 3.9 11.4-3zm11.4-13 2 2.9-5.7 8.5-5.9-7.6zm3.9 7.3 3.5 7-7 2.4-.6-3.3 4-6z"/>
</svg>
<rect x="16" y="15" width="96" height="72" fill="url(#agGlass)"/>
<path d="M16 15H112V29C79 28 50 42 16 48Z" fill="url(#agShine)"/></g>
<rect x="16" y="15" width="96" height="72" rx="8" fill="none" stroke="#d7ffff" stroke-opacity=".6"/>
<path d="M24 11H102" stroke="#fff" stroke-opacity=".8" stroke-linecap="round"/>
<path d="M13 26V69" stroke="#d6ffff" stroke-opacity=".35"/>
<path d="M43 94H85" stroke="#b9ed49" stroke-width="2" stroke-linecap="round"/>
<circle cx="19" cy="93" r="1.5" fill="#89adba"/><circle cx="109" cy="93" r="1.5" fill="#89adba"/>
</svg>